<?xml version='1.0' encoding='iso-8859-1'?>
<!DOCTYPE svg PUBLIC '-//W3C//DTD SVG 1.1//EN' 'http://www.w3.org/Graphics/SVG/1.1/DTD/svg11.dtd'>
<!-- Uploaded to: SVGRepo, www.svgrepo.com, Transformed by: SVGRepo Tools -->
<svg fill="#000000" height="800px" width="800px" version="1.1" xmlns="http://www.w3.org/2000/svg" viewBox="0 0 432.371 432.371" xmlns:xlink="http://www.w3.org/1999/xlink" enable-background="new 0 0 432.371 432.371">
  <g>
    <path d="m424.871,99.191h-23.891v-14.999c0-2.761-2.239-5-5-5h-56.997c-2.761,0-5,2.239-5,5v14.999h-11.96l-12.216-39.703c-0.968-3.147-3.876-5.294-7.168-5.294h-172.908c-3.292,0-6.2,2.147-7.168,5.294l-12.216,39.703h-13.851v-14.999c0-2.761-2.239-5-5-5h-5.394v-17.499c0-2.761-2.239-5-5-5h-36.209c-2.761,0-5,2.239-5,5v17.499h-5.394c-2.761,0-5,2.239-5,5v14.999h-21.999c-4.142,0-7.5,3.358-7.5,7.5v263.987c0,4.142 3.358,7.5 7.5,7.5h417.371c4.142,0 7.5-3.358 7.5-7.5v-263.987c0-4.142-3.358-7.5-7.5-7.5zm-208.685,248.24c-52.105,0-94.495-42.39-94.495-94.495 0-52.104 42.39-94.495 94.495-94.495 52.104,0 94.495,42.39 94.495,94.495-0.001,52.105-42.391,94.495-94.495,94.495zm109.494-94.495c0-60.375-49.119-109.495-109.495-109.495-60.376,0-109.495,49.119-109.495,109.495 0,36.471 17.928,68.83 45.429,88.74h-137.119v-207.486h402.371v207.486h-137.12c27.501-19.91 45.429-52.269 45.429-88.74zm18.303-163.744h46.997v9.999h-46.997v-9.999zm-208.712-19.999h161.829l9.229,29.998h-180.287l9.229-29.998zm-85.378-2.5h26.209v12.499h-26.209v-12.499zm-10.394,22.499h5.394 36.209 5.394v9.999h-46.997v-9.999zm377.872,24.999v9.999h-402.371v-9.999h402.371zm-402.371,248.987v-11.502h153.882c14.326,6.891 30.372,10.755 47.304,10.755 16.932,0 32.977-3.864 47.303-10.755h153.882v11.502h-402.371z"/>
    <path d="m216.186,177.438c-41.63,0-75.499,33.869-75.499,75.499s33.869,75.499 75.499,75.499 75.499-33.869 75.499-75.499-33.87-75.499-75.499-75.499zm0,140.997c-36.116,0-65.499-29.382-65.499-65.499s29.382-65.499 65.499-65.499 65.499,29.382 65.499,65.499-29.383,65.499-65.499,65.499z"/>
    <path d="m216.186,193.077c-33.006,0-59.859,26.853-59.859,59.859s26.853,59.859 59.859,59.859 59.859-26.853 59.859-59.859-26.853-59.859-59.859-59.859zm0,109.718c-27.493,0-49.859-22.367-49.859-49.859 0-27.492 22.367-49.859 49.859-49.859 27.492,0 49.859,22.367 49.859,49.859-0.001,27.493-22.367,49.859-49.859,49.859z"/>
    <path d="m400.48,138.228h-65.997c-2.761,0-5,2.239-5,5v46.178c0,2.761 2.239,5 5,5h65.997c2.761,0 5-2.239 5-5v-46.178c0-2.762-2.238-5-5-5zm-5,46.178h-55.997v-36.178h55.997v36.178z"/>
    <path d="m355.392,178.736h24.181c2.761,0 5-2.239 5-5v-14.838c0-2.761-2.239-5-5-5h-24.181c-2.761,0-5,2.239-5,5v14.838c0,2.761 2.238,5 5,5zm5-14.839h14.181v4.838h-14.181v-4.838z"/>
    <path d="m70.747,312.931c0,12.268 9.981,22.249 22.249,22.249s22.249-9.981 22.249-22.249-9.981-22.249-22.249-22.249-22.249,9.981-22.249,22.249zm34.498,0c0,6.754-5.495,12.249-12.249,12.249s-12.249-5.495-12.249-12.249 5.495-12.249 12.249-12.249 12.249,5.495 12.249,12.249z"/>
  </g>
</svg>
